<svg width="34" height="34" viewBox="0 0 34 34" fill="none" xmlns="http://www.w3.org/2000/svg">
<g id="bag 1">
<path id="Vector" d="M29.6932 9.16825H23.2223V7.33489C23.2223 3.86148 20.4062 1.04541 16.9328 1.04541C13.4592 1.04541 10.6431 3.86148 10.6431 7.33489V9.16825H3.80285C3.40327 9.16939 3.07926 9.49295 3.07812 9.89298V27.2974C3.07903 29.2982 4.7007 30.9198 6.70129 30.9205H26.8018C28.8026 30.9198 30.4242 29.2982 30.4247 27.2974V9.89298C30.4202 9.49159 30.0941 9.16893 29.6932 9.16825ZM12.0851 7.32763C12.0851 4.6545 14.2524 2.48714 16.9253 2.48714C19.5989 2.48714 21.7658 4.6545 21.7658 7.32763V9.16099H12.0851V7.32763ZM28.9684 27.2974C28.9648 28.4968 27.9937 29.4679 26.7947 29.4713H6.69425C5.49485 29.4679 4.52371 28.4968 4.52031 27.2974V10.6175H10.6358V13.5665C10.6358 13.9668 10.9605 14.2912 11.3603 14.2912C11.7606 14.2912 12.0851 13.9668 12.0851 13.5665V10.6175H21.7731V13.5665C21.7731 13.9668 22.0975 14.2912 22.4978 14.2912C22.8976 14.2912 23.2223 13.9668 23.2223 13.5665V10.6175H28.9684V27.2974Z" fill="#2C2C2C"/>
<circle id="Ellipse 933" cx="31" cy="3" r="3" fill="#F93C00"/>
</g>
</svg>
