<svg width="34" height="34" viewBox="0 0 34 34" fill="none" xmlns="http://www.w3.org/2000/svg">
<path d="M23.5544 6.00059C21.0279 5.98708 18.6261 7.09666 16.9987 9.0292C15.3814 7.08345 12.973 5.97072 10.443 6.00059C5.70021 6.00059 1.85547 9.84533 1.85547 14.5881C1.85547 22.7157 16.0403 30.6514 16.6153 30.9581C16.8474 31.1132 17.15 31.1132 17.3821 30.9581C17.9572 30.6514 32.1419 22.8306 32.1419 14.5881C32.1419 9.84533 28.2971 6.00059 23.5544 6.00059ZM16.9987 29.4246C14.7751 28.1212 3.38896 21.1822 3.38896 14.5881C3.38896 10.6923 6.54716 7.53401 10.443 7.53401C12.8288 7.50267 15.0614 8.70603 16.347 10.716C16.608 11.0759 17.1115 11.1561 17.4714 10.895C17.5401 10.8451 17.6006 10.7847 17.6504 10.716C19.7825 7.45534 24.1542 6.54044 27.4148 8.6725C29.4109 9.97771 30.6123 12.2031 30.6084 14.588C30.6084 21.2588 19.2222 28.1595 16.9987 29.4246Z" fill="#2C2C2C"/>
<circle cx="31" cy="3" r="3" fill="#F93C00"/>
</svg>
